PathFileType	4	(X/Y/Z)	C:/Users/opensim2020/Desktop/walking_exp_matlab/subject06_walking19_straight_01.trc	
DataRate	CameraRate	NumFrames	NumMarkers	Units	OrigDataRate	OrigDataStartFrame	OrigNumFrames	
100.00	100.00	9	49	mm	100.00	1038	472	
Frame#	Time	LFHD			RFHD			LBHD			RBHD			C7			T10			CLAV			STRN			RBAK			LSHO			LUPA			LELB			LFRM			LWRA			LWRB			LFIN			RSHO			RUPA			RELB			RFRM			RWRA			RWRB			RFIN			LASI			RASI			LPSI			RPSI			LTHI			LKNE			LTIB			LANK			LHEE			LTOE			RTHI			RKNE			RTIB			RANK			RHEE			RTOE			*39			*40			*41			*42			*43			*44			*45			*46			*47			*48			
		X1	Y1	Z1	X2	Y2	Z2	X3	Y3	Z3	X4	Y4	Z4	X5	Y5	Z5	X6	Y6	Z6	X7	Y7	Z7	X8	Y8	Z8	X9	Y9	Z9	X10	Y10	Z10	X11	Y11	Z11	X12	Y12	Z12	X13	Y13	Z13	X14	Y14	Z14	X15	Y15	Z15	X16	Y16	Z16	X17	Y17	Z17	X18	Y18	Z18	X19	Y19	Z19	X20	Y20	Z20	X21	Y21	Z21	X22	Y22	Z22	X23	Y23	Z23	X24	Y24	Z24	X25	Y25	Z25	X26	Y26	Z26	X27	Y27	Z27	X28	Y28	Z28	X29	Y29	Z29	X30	Y30	Z30	X31	Y31	Z31	X32	Y32	Z32	X33	Y33	Z33	X34	Y34	Z34	X35	Y35	Z35	X36	Y36	Z36	X37	Y37	Z37	X38	Y38	Z38	X39	Y39	Z39	X40	Y40	Z40	X41	Y41	Z41	X42	Y42	Z42	X43	Y43	Z43	X44	Y44	Z44	X45	Y45	Z45	X46	Y46	Z46	X47	Y47	Z47	X48	Y48	Z48	X49	Y49	Z49	

178	1.770	1328.97510	-327.71613	1669.04468	1460.10535	-334.48358	1658.21265	1321.35339	-456.21802	1604.70544	1450.81116	-461.72388	1599.13672	1375.72791	-453.24374	1455.85950	1385.07751	-496.38354	1128.85522	1387.69080	-346.79984	1375.50708	1385.15955	-312.86398	1198.03931	1449.55933	-536.59399	1288.38049	1221.85022	-381.61569	1407.82642	1149.27600	-350.78101	1207.68127	1137.19226	-329.19116	1096.42102	1131.73706	-254.45378	964.20392	1196.17529	-172.07880	877.96826	1145.96838	-215.03896	852.50427	1161.32397	-149.20934	792.11084	1543.42505	-403.41870	1410.29358	1628.40454	-454.82593	1213.76697	1640.27917	-451.52640	1091.53394	1659.01025	-443.02957	971.63354	1631.84180	-390.26770	828.49976	1669.35754	-444.80493	833.83997	1674.78503	-411.91788	756.37189	1291.50830	-320.17462	958.55389	1512.56360	-333.45258	972.23773	1310.69836	-477.99551	995.44006	1479.12183	-483.25650	999.34174	1238.03137	-417.72818	650.74713	1260.02600	-447.05676	488.68552	1273.71570	-511.40454	240.30396	1321.33398	-537.82153	70.48296	1365.25781	-580.88031	58.41062	1329.32800	-393.68454	42.09415	1583.79333	-333.36673	647.32263	1558.90845	-284.75735	530.63531	1556.53589	-289.77127	269.56674	1517.86816	-267.36789	83.26794	1466.08972	-294.11124	56.18631	1542.11963	-114.50753	58.49944	1382.06335	-433.98578	1699.82983																											 
179	1.780	1330.51233	-322.53934	1668.47034	1461.73743	-329.13818	1657.44714	1322.75964	-451.04294	1604.17908	1452.28748	-456.80649	1598.46521	1376.80078	-448.13907	1455.17529	1385.57727	-490.77765	1128.14612	1388.89844	-341.51422	1374.91968	1386.00024	-307.51016	1197.46375	1450.14307	-531.41864	1287.49292	1222.96118	-376.20889	1407.40967	1150.47668	-345.00845	1207.30933	1138.51282	-323.27417	1096.03589	1133.54736	-247.66283	964.01233	1198.37537	-164.82259	878.93066	1148.46899	-207.60176	852.78406	1164.12695	-141.41583	792.91486	1544.48938	-398.50751	1409.36975	1629.05310	-450.35312	1212.81934	1640.96973	-447.06607	1090.56226	1659.65479	-439.18307	970.64307	1632.75073	-386.49332	827.36475	1670.00525	-441.18381	832.83136	1675.65112	-408.55835	755.36066	1291.69250	-314.96799	957.87415	1512.81519	-327.84088	971.38342	1311.09448	-472.64951	994.77441	1479.68237	-477.91919	998.70087	1238.42273	-413.53311	650.21606	1260.38391	-443.68402	488.26050	1273.86011	-509.79294	240.24652	1321.47510	-537.54510	70.61125	1365.40234	-580.79474	58.61968	1329.34448	-393.69449	41.99130	1584.34375	-327.99414	646.45026	1559.18140	-280.07138	529.66260	1557.64099	-278.45877	268.64639	1519.39746	-250.97147	82.85179	1467.81689	-276.79907	54.91393	1542.80420	-96.83884	61.10999	1383.64587	-428.79892	1699.24097																											 
180	1.790	1332.14441	-317.59180	1667.71741	1463.33459	-323.88681	1656.61206	1324.19714	-445.73987	1603.60815	1453.75012	-451.55936	1597.68262	1377.81287	-442.63599	1454.41089	1386.28748	-485.28210	1127.40747	1390.03296	-336.23065	1374.26160	1386.80981	-302.08792	1196.78735	1450.79419	-526.07245	1286.52820	1224.09558	-370.69144	1406.95935	1151.63940	-339.27826	1206.94507	1139.84509	-317.40863	1095.53174	1135.40588	-241.04210	964.20648	1200.55212	-157.27032	879.95374	1150.95105	-200.47926	853.07861	1166.93481	-133.91081	793.58551	1545.64038	-393.51041	1408.41150	1629.78662	-445.79953	1211.78491	1641.66431	-442.81287	1089.55579	1660.37134	-435.07346	969.61591	1633.69519	-382.61462	826.17456	1670.74744	-437.42188	831.80573	1676.45227	-404.96750	754.18109	1291.87439	-309.68649	957.13257	1512.76367	-322.20578	970.27704	1311.66565	-467.38062	994.17609	1480.07776	-471.87534	997.90973	1238.79932	-409.24280	649.64343	1260.77881	-440.16690	487.76138	1274.22168	-508.15765	240.15521	1321.63525	-537.29401	70.78001	1365.68408	-580.86267	59.10365	1329.41968	-393.57797	41.90574	1585.00330	-322.38800	645.51501	1559.46619	-275.24307	528.50122	1558.70764	-267.64206	267.79190	1520.97949	-235.31082	82.67590	1469.58484	-260.53699	54.02019	1543.22998	-80.02924	64.47141	1385.29089	-423.52805	1698.54138																											 
181	1.800	1333.81543	-311.94797	1667.18384	1464.86646	-318.79199	1655.75012	1325.77954	-440.48047	1603.01624	1455.26697	-446.31070	1596.87219	1379.10400	-437.61545	1453.64490	1387.12280	-479.63870	1126.59058	1391.21851	-330.91556	1373.52063	1387.69153	-296.51498	1196.11597	1451.54956	-520.69971	1285.53113	1225.34387	-365.21487	1406.45593	1152.90051	-333.58548	1206.43823	1141.27136	-311.72784	1095.06140	1137.34314	-234.63860	963.89441	1202.78528	-150.19077	880.62592	1153.45911	-193.37215	853.25104	1169.75439	-126.42718	794.15521	1546.85754	-388.43314	1407.38391	1630.56506	-441.15155	1210.71545	1642.51306	-438.22128	1088.51636	1661.19165	-430.84140	968.56573	1634.71777	-378.59592	825.01111	1671.64355	-433.54669	830.80090	1677.41772	-401.31833	753.11841	1292.09509	-304.37924	956.36084	1513.13086	-315.97159	969.38391	1312.37854	-461.92957	993.51257	1480.77136	-465.92856	997.09204	1239.16797	-405.03018	649.04108	1261.29895	-436.70563	487.29813	1274.36304	-506.56754	240.04849	1321.73474	-537.06195	70.95162	1365.82263	-580.75250	59.37429	1329.56177	-393.48810	41.79672	1585.34009	-317.00500	644.52576	1559.44519	-270.08295	527.35815	1559.71497	-257.30203	267.03052	1522.43823	-220.27391	82.60517	1471.35193	-244.94073	52.96519	1543.41895	-64.08712	68.19004	1386.98474	-418.19757	1697.81763																											 
182	1.810	1335.53882	-306.60944	1666.52002	1466.57068	-313.48685	1654.85742	1327.39539	-435.13083	1602.37500	1456.82922	-440.84891	1596.02332	1380.30847	-432.19571	1452.77686	1387.98853	-473.72354	1125.67651	1392.45215	-325.49338	1372.78784	1388.60352	-290.83649	1195.37183	1452.36316	-515.28882	1284.37317	1226.54370	-359.80008	1405.89624	1154.15674	-327.92661	1205.92773	1142.66431	-305.85522	1094.49780	1139.14001	-228.33792	963.77905	1205.13049	-143.28490	881.25354	1155.98059	-186.26346	853.31854	1172.69360	-119.16541	794.55762	1548.09741	-383.29950	1406.31995	1631.42957	-436.44885	1209.61682	1643.37903	-433.68503	1087.38098	1662.03369	-426.64331	967.47491	1635.84790	-374.41574	823.77521	1672.35730	-429.56018	829.67804	1678.33984	-397.46628	751.96802	1292.16553	-299.04373	955.46106	1513.36707	-309.85019	968.21667	1313.18494	-456.39221	992.82477	1481.64001	-459.84314	996.19305	1239.49426	-400.75784	648.39154	1261.76831	-433.15845	486.76828	1274.39636	-505.02609	240.02431	1321.85291	-536.82654	71.10487	1365.78540	-580.47437	59.45340	1329.60803	-393.42197	41.68935	1585.43164	-311.76529	643.34247	1559.54041	-265.11072	526.17096	1560.75122	-247.45927	266.39236	1524.03027	-206.04028	82.66353	1473.34839	-230.60367	52.50310	1543.41052	-48.95936	71.65507	1388.73816	-412.85657	1697.09875																											 
183	1.820	1337.30505	-301.31555	1665.80408	1468.28369	-308.08408	1653.91870	1329.04675	-429.75305	1601.65686	1458.44409	-435.30728	1595.06616	1381.70178	-426.90317	1451.88257	1389.01514	-467.95786	1124.75598	1393.68665	-319.98798	1372.00476	1389.55994	-285.06613	1194.59058	1453.28857	-509.66751	1283.17554	1227.83704	-354.33292	1405.26636	1155.49585	-322.20087	1205.33667	1144.17834	-300.04300	1093.85229	1141.10291	-221.72693	963.51685	1207.38635	-136.46515	881.72467	1158.52075	-179.46156	853.27777	1175.42773	-112.06457	794.86536	1549.40210	-378.07852	1405.20251	1632.40588	-431.66971	1208.48572	1644.23962	-429.20941	1086.26746	1662.98926	-422.13037	966.31238	1636.96411	-370.01202	822.53052	1673.19592	-425.40552	828.52448	1679.25500	-393.39468	750.73694	1292.50269	-293.69226	954.56042	1513.54932	-303.71722	966.99542	1314.14722	-450.86679	992.09137	1482.69226	-453.68460	995.25226	1239.99646	-396.46625	647.70251	1262.15991	-429.73660	486.28522	1274.54431	-503.39917	239.95320	1321.87598	-536.60028	71.24992	1365.79102	-580.36536	59.71062	1329.63770	-393.33517	41.55559	1585.82117	-306.07605	642.23547	1559.34021	-260.06830	525.06952	1561.89856	-237.98131	265.72672	1525.70190	-192.60246	82.63853	1475.37109	-216.78055	51.84048	1543.39197	-34.71406	74.67054	1390.59216	-407.54660	1696.28186																											 
184	1.830	1339.14905	-295.93253	1665.07397	1470.12170	-302.65143	1652.93250	1330.79504	-424.34622	1600.86768	1460.21802	-429.97787	1594.05481	1383.12207	-421.37405	1450.88867	1390.07507	-461.84689	1123.67114	1395.07751	-314.40305	1371.17859	1390.56384	-279.16016	1193.78857	1454.26050	-503.90201	1281.86011	1229.19775	-348.83884	1404.58728	1156.94250	-316.42508	1204.68225	1145.71130	-294.18628	1093.23999	1143.16211	-215.39987	962.99713	1209.70386	-129.69266	882.03833	1160.98621	-172.56274	853.19897	1178.30835	-105.01333	795.05713	1550.75330	-372.75333	1404.04285	1633.44812	-426.77206	1207.31262	1645.35828	-424.37527	1085.09717	1663.94397	-417.63800	965.12518	1638.08838	-365.44931	821.28699	1674.13135	-421.01611	827.32806	1680.32422	-389.16135	749.56543	1292.90991	-288.13959	953.58911	1513.95972	-297.52246	965.70538	1315.21936	-445.35275	991.42975	1483.83777	-447.40237	994.25391	1240.13831	-392.17322	647.00897	1262.51489	-426.26874	485.73538	1274.47656	-501.74478	240.02344	1321.85938	-536.40900	71.41270	1365.80847	-580.52460	60.15282	1329.62915	-393.21332	41.41255	1585.89404	-300.50742	640.85126	1559.04700	-255.03499	524.09473	1563.13403	-228.83321	265.11243	1527.60266	-180.06696	82.56472	1477.71350	-204.23639	51.25115	1543.22095	-21.63971	77.09385	1392.52271	-402.12598	1695.40088																											 
185	1.840	1341.07410	-290.44962	1664.31470	1472.11658	-297.01196	1651.93201	1332.64343	-418.91315	1600.07349	1462.00220	-424.37451	1592.96069	1384.67871	-415.92053	1449.93750	1391.26123	-455.79593	1122.65234	1396.47949	-308.76376	1370.29443	1391.72095	-273.13147	1192.95361	1455.40063	-498.11081	1280.44006	1230.66003	-343.30734	1403.86462	1158.35828	-310.68781	1203.98560	1147.28479	-288.31281	1092.50037	1145.19910	-209.08212	962.52087	1212.16589	-123.35309	882.10345	1163.42297	-165.67792	852.97137	1181.07361	-97.88245	795.10931	1552.26440	-367.35999	1402.85815	1634.53418	-421.73767	1206.10144	1646.36389	-419.67966	1083.88379	1664.93030	-413.01184	963.93414	1639.31384	-360.80801	819.95978	1675.11926	-416.58264	826.11700	1681.40381	-384.82233	748.32404	1293.44519	-282.49045	952.60400	1514.20752	-291.42886	964.23267	1316.34082	-439.74124	990.69470	1485.05627	-441.67157	993.21271	1240.63086	-387.94632	646.30438	1262.76660	-422.83987	485.19333	1274.70105	-500.38580	239.96147	1321.84668	-536.17102	71.56290	1365.58594	-580.34595	60.25100	1329.59045	-393.14212	41.37187	1586.09436	-294.49283	639.64655	1558.49927	-249.71671	523.14728	1564.50000	-220.10689	264.48209	1529.58020	-168.38719	82.48135	1480.28284	-192.83810	50.59863	1542.92920	-9.57786	79.39872	1394.52295	-396.74490	1694.44299																											 
186	1.850	1343.03015	-285.02075	1663.53369	1473.92224	-291.70657	1650.85657	1334.54724	-413.41919	1599.14050	1463.87927	-418.83771	1591.79773	1386.05603	-409.90207	1448.70386	1392.52344	-449.47272	1121.43579	1397.96216	-302.96945	1369.41663	1392.80518	-267.01212	1192.03333	1456.65845	-492.18918	1279.04407	1232.12378	-337.74908	1403.06506	1159.89563	-304.84912	1203.21387	1148.94934	-282.45944	1091.71814	1147.25488	-202.91968	962.19641	1214.49487	-116.76528	882.15851	1165.85254	-158.95450	852.70947	1183.90198	-91.04815	795.06854	1553.79053	-361.82288	1401.61633	1635.70996	-416.68716	1204.88184	1647.58069	-414.58661	1082.62207	1666.05750	-408.18130	962.61816	1640.58728	-355.94568	818.58771	1676.20117	-411.88120	824.88544	1682.46692	-380.25595	746.94226	1293.48877	-277.37323	951.39728	1514.64575	-285.14603	962.88312	1317.48206	-433.93271	989.85797	1486.22400	-434.70944	992.16608	1240.85547	-383.71036	645.59436	1263.05615	-419.45612	484.61740	1274.79077	-498.64670	239.78642	1321.84351	-535.95654	71.66426	1365.60950	-580.13324	60.40575	1329.52002	-393.06570	41.28114	1585.74463	-288.47171	638.22522	1558.12354	-244.07700	522.19678	1565.98328	-211.60646	263.84647	1531.55444	-157.77258	82.38038	1482.80078	-182.31488	49.48608	1541.95166	1.49181	81.08910	1396.55212	-391.25168	1693.45776																											 
